# xmcd
#
# Track frame offsets:
#	150
#	18137
#	35337
#	51801
#	71135
#	88338
#	99430
#
# Disc length: 1673 seconds
#
# Revision: 1
# Processed by: cddbd v1.5.2PL0 Copyright (c) Steve Scherf et al.
# Submitted via: audiograbber 1.83.01
#
DISCID=54068707
DTITLE=Van Dyck Inc. - Gimme Your Change
DYEAR=2013
DGENRE=BluesRock
TTITLE0=Help Me Out There
TTITLE1=Everyday I Have The Blues
TTITLE2=Rocky Raccoon Is Back In Town
TTITLE3=Gimme Your Change
TTITLE4=Willin'
TTITLE5=Get Away From My Door
TTITLE6=Across The Borderline
EXTD=
EXTT0=
EXTT1=
EXTT2=
EXTT3=
EXTT4=
EXTT5=
EXTT6=
PLAYORDER=
